<svg xmlns="http://www.w3.org/2000/svg" viewBox="6 4 1158 267" role="img" aria-label="Atelier Naho">
<!-- Logo NAHO, version retenue par Jocelyn le 07.10.2026 : trace automatique de son image, trait des lettres epaissi de 15 pour cent. -->
<path fill="#0F4A6E" fill-rule="evenodd" stroke="#0F4A6E" stroke-width="4" stroke-linejoin="round" d="M1059.6 235.9C1063.8 235.4 1064.2 235.3 1066.6 234.8C1067.7 234.5 1069.2 234.2 1069.9 234.1C1071.4 233.9 1071.6 233.9 1076.0 232.5C1077.9 231.9 1079.7 231.2 1080.1 231.0C1080.5 230.8 1081.3 230.5 1081.8 230.4C1082.2 230.3 1083.5 229.8 1084.5 229.4C1085.5 228.9 1087.0 228.4 1087.8 228.1C1088.5 227.9 1089.6 227.4 1090.2 227.0C1090.8 226.6 1091.7 226.1 1092.2 226.0C1092.7 225.8 1093.3 225.5 1093.6 225.3C1094.2 224.7 1095.7 224.0 1096.1 224.0C1096.3 224.0 1096.6 223.8 1096.8 223.6C1096.9 223.4 1097.9 222.8 1098.8 222.4C1099.7 221.9 1100.6 221.3 1100.7 221.1C1100.8 220.9 1101.6 220.5 1102.4 220.1C1103.2 219.8 1103.9 219.4 1104.0 219.2C1104.1 219.1 1104.9 218.5 1105.8 217.9C1108.2 216.4 1108.9 215.4 1109.4 213.1C1110.0 210.0 1109.2 208.1 1105.9 204.7C1104.9 203.6 1104.0 202.6 1104.0 202.4C1104.0 202.1 1103.5 201.6 1101.6 199.5C1101.2 199.0 1100.5 198.1 1100.1 197.4C1099.7 196.8 1099.2 196.1 1098.8 196.0C1098.5 195.9 1097.7 195.5 1097.1 195.3C1096.5 195.0 1095.8 194.8 1095.5 194.8C1094.7 194.8 1090.9 196.4 1089.7 197.3C1088.3 198.3 1086.5 199.4 1085.3 200.0C1084.8 200.3 1084.3 200.6 1084.0 200.9C1083.8 201.1 1082.8 201.5 1081.9 201.9C1081.0 202.2 1080.0 202.7 1079.7 202.9C1079.4 203.1 1078.4 203.5 1077.5 203.8C1076.6 204.0 1075.7 204.5 1075.4 204.8C1075.1 205.0 1073.8 205.5 1072.5 205.8C1071.2 206.1 1069.4 206.6 1068.5 207.0C1067.3 207.5 1066.1 207.8 1064.0 208.0C1062.4 208.2 1060.7 208.5 1060.2 208.7C1058.7 209.4 1045.2 209.4 1041.8 208.8C1040.4 208.5 1038.0 208.1 1036.3 207.9C1033.3 207.5 1031.9 207.2 1031.4 206.8C1031.2 206.6 1030.0 206.3 1028.6 206.0C1027.2 205.7 1025.6 205.2 1024.9 204.9C1024.3 204.5 1023.0 204.1 1022.2 204.0C1021.2 203.8 1020.5 203.6 1020.0 203.2C1019.7 202.8 1018.7 202.3 1017.8 201.9C1016.9 201.5 1016.0 201.0 1015.8 200.8C1015.7 200.5 1015.2 200.2 1014.8 200.1C1014.2 200.0 1012.3 198.8 1010.4 197.5C1006.8 194.9 1003.5 195.2 1000.5 198.4C1000.0 198.9 996.0 203.1 995.5 203.5C995.4 203.7 994.1 204.9 992.8 206.3C989.8 209.2 989.4 210.2 989.6 213.1C989.8 215.0 989.8 215.1 991.0 216.3C992.3 217.6 993.3 218.4 996.0 220.0C996.8 220.5 997.7 221.1 997.9 221.3C998.4 221.7 1000.5 222.9 1002.5 223.9C1003.1 224.2 1004.0 224.7 1004.4 225.1C1004.8 225.4 1005.7 225.9 1006.5 226.2C1007.3 226.5 1008.1 227.0 1008.3 227.2C1008.5 227.4 1009.3 227.7 1010.1 227.9C1010.9 228.0 1011.9 228.5 1012.4 228.8C1013.0 229.2 1014.3 229.8 1015.5 230.2C1016.7 230.6 1017.9 231.1 1018.2 231.2C1018.4 231.4 1019.7 231.7 1021.0 232.0C1022.3 232.3 1023.8 232.8 1024.2 233.0C1025.1 233.4 1027.9 234.0 1032.4 234.8C1033.3 234.9 1034.6 235.2 1035.2 235.5C1037.4 236.2 1054.3 236.5 1059.6 235.9ZM36.2 229.1C36.6 228.9 37.7 228.5 38.6 228.2C39.6 227.9 40.6 227.4 40.9 227.1C41.1 226.9 41.8 226.3 42.4 225.9C42.9 225.5 43.5 224.8 43.8 224.4C44.0 224.0 46.0 221.9 48.1 219.8C50.2 217.6 52.7 214.9 53.8 213.8C55.5 211.7 58.8 208.3 62.1 204.9C63.0 204.1 64.7 202.2 66.0 200.7C70.1 196.1 71.8 194.2 74.1 191.8C75.3 190.5 76.2 189.3 76.2 189.2C76.2 189.0 77.0 188.2 77.8 187.5C78.7 186.7 79.6 185.8 80.0 185.4C80.3 185.0 81.4 183.8 82.3 182.9C83.2 181.9 85.0 180.1 86.2 178.8C87.4 177.5 89.0 175.8 89.9 174.9C90.7 174.1 91.8 172.9 92.3 172.2C92.8 171.6 93.8 170.5 94.5 169.7C97.4 166.8 99.8 164.0 100.4 163.2C100.7 162.7 101.1 162.2 101.2 162.2C101.3 162.2 102.2 161.3 103.2 160.2C104.1 159.1 105.5 157.5 106.3 156.8C107.1 156.0 108.5 154.4 109.6 153.1C112.5 149.8 112.8 149.5 114.0 148.4C114.6 147.9 115.3 147.1 115.7 146.5C116.0 146.0 117.0 144.8 118.0 143.9C118.9 142.9 119.9 141.8 120.1 141.3C120.3 140.9 121.0 140.2 121.7 139.7C122.3 139.2 123.1 138.5 123.4 138.1C123.9 137.4 126.0 134.9 126.6 134.3C126.7 134.1 127.8 133.1 129.0 131.9C130.2 130.8 131.6 129.3 132.0 128.5C132.5 127.7 134.1 125.9 135.6 124.5C137.0 123.1 139.2 120.7 140.5 119.2C143.2 116.2 145.5 113.8 149.4 109.7C150.9 108.2 153.0 105.8 154.1 104.5C155.1 103.2 156.7 101.4 157.6 100.4C158.5 99.5 160.3 97.5 161.7 95.9C163.1 94.4 165.5 91.8 167.0 90.2C168.5 88.7 170.0 87.0 170.3 86.6C170.5 86.1 170.8 85.7 170.9 85.7C171.0 85.7 171.3 85.4 171.6 85.0C171.9 84.6 172.4 84.1 172.9 83.9C173.3 83.7 173.9 83.1 174.2 82.6C174.5 82.2 175.4 81.2 176.1 80.6C176.8 79.9 177.9 78.8 178.6 78.0C182.8 73.4 183.8 72.2 185.2 70.9C186.0 70.0 187.1 68.8 187.6 68.1C188.9 66.5 190.0 65.3 190.7 64.7C191.1 64.4 191.9 63.5 192.6 62.8C196.1 59.0 199.1 56.0 199.4 56.0C199.5 56.0 200.2 55.5 201.0 54.9C201.8 54.3 202.5 53.8 202.6 53.8C202.7 53.8 203.2 53.4 203.7 53.0C204.1 52.6 205.0 52.1 205.6 52.0C206.1 51.8 207.0 51.4 207.5 51.1C208.0 50.8 209.1 50.3 210.1 50.0C211.0 49.7 212.0 49.3 212.3 49.1C212.9 48.7 216.3 47.8 217.1 47.8C217.4 47.8 218.3 47.5 219.1 47.1C221.2 46.3 229.3 46.2 231.9 46.9C233.4 47.3 234.8 47.7 237.7 48.3C238.6 48.5 239.5 48.9 239.7 49.1C239.9 49.3 240.7 49.6 241.4 49.8C243.2 50.2 244.0 50.5 244.3 51.0C244.4 51.3 245.1 51.7 245.9 51.9C247.2 52.3 249.2 53.7 249.5 54.3C249.5 54.4 249.7 54.5 249.9 54.5C250.3 54.5 253.5 57.1 255.4 59.1C256.4 60.1 260.5 65.1 263.3 68.9C263.8 69.5 264.6 70.6 265.2 71.3C265.8 72.0 266.2 72.6 266.2 72.8C266.2 72.9 266.6 73.5 267.0 74.0C268.9 76.2 269.8 77.3 270.0 77.8C270.2 78.1 270.6 78.7 270.9 79.0C271.3 79.3 271.8 80.1 272.2 80.6C272.5 81.2 272.9 81.7 273.0 81.8C273.1 81.8 273.4 82.2 273.7 82.7C274.0 83.1 274.6 83.7 275.0 83.9C275.4 84.2 275.9 84.7 276.0 85.2C276.2 85.7 277.2 87.3 278.3 88.8C280.4 91.9 280.3 91.7 282.2 93.9C282.9 94.8 283.8 95.9 284.1 96.5C284.4 97.1 285.3 98.2 286.1 99.1C287.0 100.0 287.8 101.1 288.0 101.5C288.2 101.9 289.0 103.0 289.8 103.9C290.6 104.9 291.5 106.2 291.8 106.9C292.2 107.7 292.6 108.3 292.7 108.3C292.8 108.3 293.4 108.8 293.9 109.6C298.0 115.0 298.8 116.0 299.0 116.0C299.2 116.0 299.5 116.5 299.8 117.2C300.1 117.8 300.6 118.7 301.0 119.1C301.4 119.5 302.3 120.8 303.1 122.0C303.9 123.2 305.2 124.8 305.9 125.7C306.6 126.5 307.5 127.6 307.8 128.2C308.6 129.5 310.5 131.9 310.9 132.1C311.1 132.2 311.4 132.6 311.6 133.0C311.9 133.5 312.6 134.5 313.2 135.3C315.0 137.5 315.4 138.1 315.8 138.9C316.0 139.3 316.5 140.0 316.9 140.4C317.3 140.8 318.6 142.5 319.8 144.1C320.9 145.8 322.3 147.5 322.8 148.0C323.3 148.5 323.8 149.2 324.0 149.7C324.1 150.1 324.9 151.4 325.7 152.4C326.5 153.4 327.5 154.8 327.9 155.4C328.3 155.9 329.2 157.1 329.9 157.9C330.7 158.8 331.5 159.9 331.8 160.4C332.5 161.6 332.9 162.2 334.9 164.8C335.8 165.9 336.5 167.0 336.5 167.1C336.5 167.3 336.6 167.5 336.7 167.5C336.8 167.5 337.3 168.1 337.9 168.9C338.4 169.6 338.9 170.2 339.0 170.2C339.1 170.2 339.3 170.5 339.4 170.8C339.5 171.1 340.1 171.9 340.7 172.6C342.7 174.9 343.6 176.1 344.1 176.9C344.4 177.4 344.7 177.8 344.8 177.8C344.9 177.8 345.3 178.3 345.6 178.9C345.9 179.6 346.4 180.3 346.7 180.6C347.0 180.9 347.6 181.7 348.0 182.4C348.4 183.1 349.3 184.3 350.1 185.1C350.8 186.0 351.6 187.0 351.8 187.4C352.0 187.8 353.1 189.2 354.1 190.5C355.9 192.8 356.5 193.5 358.1 195.7C358.5 196.3 359.4 197.4 359.9 198.2C360.5 199.0 361.4 200.2 361.9 200.9C362.4 201.6 363.2 202.7 363.8 203.5C364.3 204.3 365.1 205.3 365.4 205.9C365.8 206.4 366.4 207.3 366.9 207.7C367.4 208.2 368.3 209.3 369.0 210.1C369.8 210.9 370.7 211.7 371.0 211.9C371.4 212.1 371.8 212.5 371.9 212.7C372.0 213.2 372.8 213.8 375.3 215.6C376.7 216.7 379.2 218.5 380.1 219.2C380.6 219.7 381.2 220.0 381.4 220.0C381.7 220.0 383.7 220.9 384.2 221.3C384.4 221.5 385.3 221.8 386.2 222.2C387.1 222.5 388.0 222.9 388.2 223.1C388.3 223.3 389.5 223.8 390.9 224.1C392.2 224.5 393.6 224.9 393.9 225.2C395.3 226.1 408.5 226.8 413.3 226.2C414.7 226.1 416.6 225.9 417.4 225.8C418.2 225.7 419.1 225.5 419.3 225.3C419.5 225.2 420.6 224.8 421.9 224.4C423.1 224.0 424.6 223.5 425.1 223.3C425.7 223.0 426.5 222.7 427.0 222.5C428.9 221.8 429.5 221.6 429.9 221.3C430.1 221.1 430.9 220.6 431.6 220.2C432.4 219.9 433.3 219.3 433.5 219.1C433.8 218.8 434.5 218.3 435.1 218.0C438.0 216.3 439.7 215.1 442.2 212.9C443.6 211.7 447.8 207.3 448.3 206.6C448.5 206.2 449.1 205.4 449.6 204.8C450.0 204.3 450.8 203.3 451.2 202.6C451.7 201.9 452.5 200.9 453.0 200.4C454.3 198.9 455.3 197.5 456.0 196.4C456.3 195.8 457.2 194.7 457.9 193.9C458.7 193.1 459.5 192.0 459.7 191.5C460.2 190.6 462.1 188.2 463.3 186.9C463.7 186.5 464.6 185.4 465.3 184.5C465.9 183.6 466.8 182.4 467.3 181.9C467.7 181.3 468.6 180.1 469.3 179.2C470.0 178.4 471.2 176.8 471.9 175.8C472.7 174.8 473.6 173.6 473.9 173.2C474.1 172.7 474.6 172.2 474.9 171.9C475.2 171.7 475.8 170.9 476.2 170.3C476.6 169.7 477.5 168.4 478.3 167.4C479.1 166.5 479.8 165.5 479.9 165.2C480.0 164.9 480.7 163.9 481.5 163.1C482.3 162.3 483.4 160.9 483.9 160.1C484.9 158.6 485.8 157.4 487.0 156.1C487.4 155.7 487.9 155.0 488.3 154.5C488.6 154.0 489.3 153.1 489.9 152.4C490.5 151.8 491.3 150.6 491.6 149.9C492.0 149.1 492.6 148.3 492.9 148.0C493.5 147.6 495.3 145.4 496.2 144.0C496.6 143.5 497.0 142.9 497.3 142.7C497.6 142.4 498.0 141.8 498.4 141.2C498.7 140.7 499.1 140.2 499.2 140.2C499.3 140.3 499.6 139.8 499.9 139.3C500.2 138.8 500.7 138.0 501.1 137.5C501.5 137.0 502.4 135.8 503.0 134.9C503.6 134.0 504.9 132.4 505.8 131.4C506.8 130.4 507.8 129.1 508.1 128.4C508.5 127.7 509.4 126.5 510.1 125.8C510.9 125.0 511.7 124.0 511.9 123.6C512.1 123.2 512.7 122.5 513.2 122.0C514.1 121.1 514.8 120.0 515.7 118.2C515.9 117.8 516.6 116.8 517.2 116.1C517.9 115.4 518.7 114.4 519.1 114.0C519.4 113.5 520.2 112.6 520.7 112.0C521.2 111.3 522.0 110.3 522.4 109.7C522.9 109.1 523.5 108.3 523.8 107.9C526.5 104.3 527.2 103.3 527.9 102.3C528.4 101.7 529.1 100.8 529.6 100.3C530.0 99.8 530.8 98.7 531.4 97.9C531.9 97.1 532.6 96.3 532.9 96.0C533.1 95.8 534.1 94.6 535.0 93.4C535.9 92.2 537.2 90.5 537.9 89.5C538.7 88.6 539.9 86.9 540.7 85.8L542.1 83.6 L542.3 80.4C542.6 75.5 542.2 73.2 541.0 71.5C540.7 71.1 540.5 70.6 540.5 70.4C540.5 69.6 539.5 68.0 538.8 67.6C538.3 67.3 538.0 67.1 538.0 67.0C538.0 66.5 534.8 64.4 533.5 64.0C532.8 63.7 531.9 63.3 531.6 63.0C530.9 62.3 525.1 62.0 523.6 62.6C523.1 62.8 521.8 63.2 520.8 63.6C518.5 64.4 516.6 65.7 515.8 66.9C515.5 67.4 515.0 67.9 514.7 68.0C514.5 68.1 514.1 68.6 513.8 69.1C513.4 69.9 512.9 70.6 511.1 72.8C510.5 73.4 509.8 74.4 509.6 74.8C509.4 75.3 509.0 75.7 508.8 75.8C508.7 75.9 508.3 76.4 508.1 76.8C507.9 77.3 507.4 78.0 507.1 78.4C505.5 80.3 504.3 81.9 503.8 82.8C503.4 83.3 502.6 84.3 502.0 85.1C501.4 85.9 500.5 87.0 500.1 87.6C499.7 88.2 499.0 89.2 498.4 89.9C497.9 90.6 497.5 91.3 497.5 91.4C497.5 91.6 497.3 91.9 497.1 92.0C496.8 92.2 495.8 93.6 494.9 95.0C493.9 96.4 493.0 97.7 492.9 97.9C492.7 98.0 492.3 98.6 491.9 99.2C491.6 99.8 491.2 100.2 491.0 100.2C490.9 100.2 490.5 100.8 490.0 101.4C489.5 102.1 488.8 103.0 488.4 103.5C487.6 104.4 487.2 104.8 486.0 106.8C485.6 107.4 485.1 108.0 484.9 108.1C484.7 108.2 484.3 108.6 484.1 109.2C483.8 109.7 482.9 111.0 482.1 112.1C481.2 113.1 480.3 114.4 480.0 115.0C479.8 115.5 479.4 116.1 479.1 116.2C478.9 116.4 478.5 117.0 478.3 117.5C478.0 118.0 477.6 118.6 477.2 118.9C476.9 119.2 476.3 119.9 475.8 120.6C474.2 123.0 473.8 123.6 473.0 124.4C472.6 124.8 472.0 125.6 471.7 126.1C471.3 126.7 470.7 127.5 470.3 127.9C469.4 129.0 468.4 130.4 467.5 131.8C466.5 133.2 463.7 136.9 461.4 139.6C461.0 140.2 459.9 141.6 459.0 142.8C458.1 143.9 457.2 145.2 456.9 145.5C456.6 145.8 456.1 146.5 455.9 147.0C455.7 147.5 455.0 148.5 454.2 149.2C453.1 150.5 450.0 154.3 447.8 157.5C447.3 158.1 446.5 159.1 446.0 159.6C445.5 160.2 445.0 160.8 444.8 161.0C444.5 161.2 444.2 161.8 443.9 162.3C443.6 162.7 443.1 163.5 442.6 164.0C441.7 165.0 440.6 166.6 439.9 167.6C439.4 168.4 438.7 169.3 436.8 171.6C436.2 172.3 435.8 173.0 435.8 173.1C435.8 173.3 434.9 174.5 433.9 175.7C432.9 176.9 431.9 178.3 431.6 178.8C431.4 179.2 430.9 179.9 430.7 180.1C429.5 181.3 428.6 182.4 427.9 183.6C427.2 185.0 425.4 186.9 422.4 189.6C420.5 191.3 419.1 192.3 416.2 193.6C415.5 194.0 414.2 194.7 413.3 195.1L411.8 195.9 L407.6 195.9C403.5 195.9 403.3 195.9 402.0 195.2C401.2 194.8 399.9 194.2 399.0 193.8C396.1 192.4 394.9 191.6 393.8 190.6C393.3 190.1 392.6 189.4 392.3 189.2C392.1 189.0 391.5 188.4 391.0 187.8C390.5 187.2 389.8 186.4 389.5 186.0C389.2 185.6 388.5 184.8 388.1 184.2C387.7 183.6 386.8 182.4 386.1 181.5C385.4 180.6 384.5 179.4 384.1 178.8C383.7 178.1 382.8 176.8 382.0 175.9C381.2 174.9 380.3 173.6 379.9 173.1C379.5 172.5 379.1 172.0 379.0 172.0C378.8 172.0 378.5 171.7 376.8 169.1C376.5 168.6 375.7 167.6 375.1 166.9C374.5 166.2 374.0 165.5 374.0 165.4C374.0 165.2 373.6 164.7 373.0 164.2C372.5 163.8 371.9 163.2 371.9 163.0C371.8 162.8 371.0 161.5 370.1 160.3C369.1 159.0 368.1 157.7 367.9 157.3C366.3 154.9 365.3 153.6 365.1 153.4C364.6 153.0 362.9 150.6 362.3 149.5C362.0 149.0 361.5 148.3 361.1 148.1C360.8 147.8 360.2 147.1 359.8 146.4C359.4 145.8 358.6 144.6 357.9 143.8C357.2 143.0 356.3 141.8 355.9 141.2C355.5 140.6 354.8 139.5 354.2 138.8C353.7 138.0 353.0 137.0 352.7 136.6C351.9 135.4 350.2 133.3 348.9 132.0C348.3 131.3 347.7 130.7 347.8 130.5C347.8 130.3 347.0 129.1 346.0 127.8C345.1 126.5 344.1 125.0 343.9 124.6C343.7 124.2 342.9 123.2 342.1 122.4C341.3 121.6 340.4 120.4 340.1 119.8C339.9 119.1 339.2 118.2 338.7 117.7C338.2 117.1 337.5 116.2 337.2 115.7C336.9 115.1 336.1 114.1 335.4 113.4C334.8 112.6 334.1 111.7 333.9 111.2C333.6 110.8 333.2 110.1 332.8 109.8C332.5 109.4 332.1 108.8 331.9 108.4C331.7 108.1 331.2 107.5 330.9 107.2C330.3 106.5 328.3 103.9 326.9 101.9C326.3 101.1 325.6 100.2 325.2 99.9C324.8 99.6 324.2 98.6 323.8 97.7C323.4 96.8 322.5 95.4 321.8 94.6C321.1 93.8 320.3 92.5 319.9 91.9C319.5 91.2 318.5 90.0 317.8 89.2C317.0 88.4 316.1 87.3 315.9 86.9C314.9 85.2 314.0 84.1 313.0 82.9C312.5 82.3 312.0 81.6 312.0 81.5C312.0 81.4 311.5 80.7 310.9 80.0C310.4 79.4 309.7 78.5 309.4 78.1C309.2 77.7 308.5 76.7 307.9 75.9C307.3 75.0 306.6 74.0 306.4 73.6C306.2 73.1 305.7 72.5 305.4 72.1C305.1 71.8 304.4 71.0 304.0 70.4C303.6 69.9 302.8 68.8 302.1 68.0C301.0 66.6 300.4 65.7 298.8 63.3C298.4 62.6 297.5 61.5 296.9 60.8C296.3 60.1 295.8 59.4 295.8 59.2C295.8 59.1 295.0 58.1 294.1 56.9C293.2 55.8 292.2 54.5 291.9 54.0C291.6 53.5 290.9 52.6 290.3 51.9C288.6 49.9 288.6 49.9 288.1 49.1C287.9 48.7 287.3 48.0 286.9 47.6C286.2 46.8 285.9 46.4 284.6 44.3C284.4 43.8 283.8 43.0 283.3 42.4C282.9 41.9 282.5 41.4 282.5 41.2C282.5 41.1 282.0 40.5 281.4 39.8C280.9 39.2 280.1 38.2 279.8 37.7C279.5 37.3 278.8 36.6 278.3 36.2C277.1 35.4 276.4 34.7 276.0 33.8C275.7 33.4 275.0 32.6 274.3 32.2C273.7 31.7 272.9 31.1 272.5 30.7C272.2 30.4 271.5 29.9 271.1 29.6C270.7 29.3 269.5 28.5 268.4 27.7C267.4 26.9 266.1 26.0 265.6 25.8C265.0 25.6 264.3 25.2 263.9 24.8C262.6 23.8 259.7 22.0 258.5 21.6C257.9 21.4 257.2 21.0 257.0 20.9C256.8 20.7 255.8 20.3 254.9 20.0C253.9 19.7 252.7 19.2 252.2 18.9C251.8 18.5 250.6 18.1 249.6 17.9C248.7 17.7 247.3 17.3 246.6 17.0C242.5 15.5 237.7 14.8 229.4 14.5C222.4 14.2 219.1 14.4 216.2 15.1C215.5 15.3 214.6 15.5 214.2 15.5C213.2 15.5 209.5 16.4 207.9 17.0C207.2 17.2 205.3 17.9 203.8 18.4C202.2 18.9 200.4 19.5 199.9 19.7C199.3 20.0 198.5 20.3 198.0 20.3C197.6 20.4 196.8 20.8 196.4 21.1C195.9 21.4 195.0 21.9 194.2 22.1C193.4 22.3 192.6 22.7 192.5 22.9C192.3 23.1 191.6 23.6 190.9 23.9C190.2 24.2 189.1 24.8 188.5 25.2C187.9 25.6 187.3 26.0 187.1 26.0C186.9 26.0 186.5 26.2 186.3 26.5C186.1 26.8 185.3 27.4 184.5 27.8C183.7 28.2 182.8 28.9 182.3 29.3C181.9 29.7 181.3 30.2 181.1 30.3C179.8 31.1 178.3 32.4 178.0 32.9C177.8 33.2 177.4 33.6 177.1 33.8C176.8 33.9 175.9 34.7 175.2 35.5C174.5 36.2 173.1 37.8 172.0 39.0C168.1 43.2 166.3 45.2 164.9 46.9C164.1 47.8 162.2 49.8 160.7 51.4C159.2 52.9 157.8 54.4 157.6 54.7C157.4 55.0 156.5 55.9 155.7 56.7C154.8 57.6 153.6 58.9 153.0 59.7C152.4 60.4 151.2 61.8 150.3 62.7C149.4 63.6 147.9 65.3 146.9 66.5C145.9 67.7 144.1 69.8 142.8 71.1C141.5 72.5 140.2 74.0 140.0 74.5C139.7 75.0 139.3 75.5 139.0 75.6C138.5 75.8 137.3 77.0 133.9 80.8C132.9 81.9 131.2 83.8 130.2 84.9C129.1 86.0 127.7 87.6 127.0 88.5C126.3 89.4 125.5 90.3 125.3 90.5C125.1 90.7 124.1 91.7 123.3 92.6C122.4 93.6 120.3 95.8 118.7 97.5C117.1 99.2 115.2 101.3 114.5 102.2C113.8 103.0 112.1 105.0 110.6 106.5C107.3 109.7 107.1 110.0 102.4 115.5C101.9 116.1 100.2 118.0 98.6 119.7C94.8 123.6 92.5 126.1 92.0 126.8C91.8 127.2 91.3 127.8 90.9 128.2C89.6 129.4 86.3 132.9 82.9 136.7C81.1 138.7 78.8 141.3 77.7 142.4C76.7 143.5 75.3 145.1 74.6 145.9C74.0 146.7 73.0 147.8 72.6 148.2C72.1 148.7 71.8 149.2 71.8 149.3C71.8 149.4 71.4 149.7 71.1 149.9C70.7 150.1 69.8 151.0 69.0 151.9C67.7 153.5 66.2 155.2 62.6 158.9C61.8 159.7 60.5 161.2 59.6 162.1C58.8 163.1 57.1 165.0 55.8 166.4C52.3 170.1 52.1 170.4 51.9 171.0C51.8 171.3 51.5 171.6 51.1 171.8C50.8 172.0 49.9 172.9 49.1 173.8C48.3 174.7 46.9 176.1 45.9 177.0C45.0 177.9 44.1 178.9 43.9 179.2C43.7 179.6 42.2 181.3 40.5 183.0C38.8 184.7 36.8 186.8 36.1 187.6C35.4 188.4 34.6 189.4 34.2 189.7C33.2 190.9 30.1 194.3 28.7 195.9C27.1 197.8 26.4 198.5 22.8 202.1C19.8 205.1 18.5 207.0 17.6 209.4C16.2 213.4 16.3 213.0 16.5 215.6C17.0 220.2 18.2 222.8 21.2 225.5C21.6 225.8 22.3 226.4 22.7 226.8C23.2 227.2 24.1 227.7 24.8 227.9C26.3 228.3 26.1 228.2 26.9 228.2C27.2 228.2 27.8 228.5 28.2 228.9C28.8 229.5 29.0 229.5 32.2 229.5C34.5 229.5 35.7 229.4 36.2 229.1ZM728.4 225.4C728.7 225.2 729.7 224.7 730.5 224.4C732.4 223.7 736.4 220.2 736.7 219.0C736.8 218.7 737.0 218.1 737.2 217.8C737.8 216.8 738.1 214.5 738.0 212.0C737.8 209.8 737.8 209.5 736.7 207.4C735.4 205.0 734.2 203.1 733.2 202.0C732.8 201.7 732.4 201.0 732.1 200.5C731.9 200.0 731.0 198.8 730.1 197.7C729.3 196.7 728.4 195.5 728.2 195.1C728.0 194.7 727.3 193.7 726.7 193.0C725.2 191.1 724.7 190.3 724.0 189.1C723.7 188.5 723.4 188.0 723.3 188.0C723.2 188.0 722.8 187.5 722.5 186.9C722.2 186.4 721.6 185.5 721.1 185.0C720.7 184.5 719.8 183.2 719.0 182.2C718.2 181.2 717.4 180.1 717.0 180.0C716.7 179.8 716.2 179.2 716.0 178.6C715.4 177.5 714.1 175.5 713.2 174.4C712.8 174.0 712.4 173.2 712.1 172.8C711.9 172.3 711.3 171.5 710.9 171.0C710.5 170.5 709.9 169.8 709.7 169.4C709.4 169.0 708.7 167.9 708.1 167.1C707.5 166.3 706.6 165.1 706.1 164.4C705.2 163.1 703.9 161.4 702.9 160.1C702.6 159.7 702.1 159.0 701.9 158.6C701.7 158.2 701.1 157.4 700.7 156.8C699.3 155.0 698.4 153.8 697.9 153.1C697.7 152.7 696.9 151.6 696.3 150.8C695.6 149.9 694.6 148.6 694.2 147.9C693.7 147.2 693.1 146.5 692.9 146.3C692.7 146.1 692.2 145.4 691.9 144.8C691.3 143.7 688.3 139.4 687.1 138.0C685.9 136.7 683.0 132.6 681.9 130.7C681.7 130.5 680.8 129.1 679.7 127.7C678.6 126.3 677.8 125.1 677.8 125.0C677.8 124.9 677.4 124.5 677.0 124.2C676.6 123.9 676.1 123.1 675.7 122.5C675.1 121.2 673.0 118.2 672.8 118.2C672.6 118.3 671.2 116.3 670.5 115.0C670.3 114.6 669.8 113.9 669.4 113.3C669.0 112.8 668.4 111.9 668.0 111.2C667.6 110.6 666.7 109.5 666.1 108.6C665.5 107.8 664.7 106.6 664.3 105.9C663.9 105.2 663.3 104.3 663.0 104.0C662.7 103.7 662.2 103.0 661.9 102.5C661.5 102.0 660.8 101.0 660.3 100.2C657.9 97.1 657.1 95.9 656.4 94.9C656.1 94.4 655.5 93.6 655.2 93.3C654.8 92.9 654.2 92.0 653.7 91.2C653.2 90.5 652.5 89.6 652.3 89.2C652.0 88.9 651.4 88.0 650.9 87.2C650.4 86.4 649.5 85.2 648.9 84.5C648.3 83.8 647.5 82.7 647.1 82.1C646.7 81.4 645.9 80.3 645.4 79.5C644.8 78.8 644.1 77.7 643.8 77.1C643.0 75.9 642.1 74.6 640.2 72.1C639.4 71.1 638.8 70.2 638.8 70.1C638.8 69.9 638.3 69.4 637.7 68.8C637.1 68.2 636.5 67.6 636.2 67.3C635.3 66.3 633.3 64.9 631.5 63.9C630.9 63.6 629.8 63.0 629.2 62.7C628.1 62.0 625.5 61.1 622.8 60.4C619.7 59.6 613.8 60.2 610.4 61.6C605.9 63.5 601.2 67.0 599.7 69.4C599.4 70.0 598.4 71.2 597.6 72.3C596.7 73.4 596.0 74.4 596.0 74.7C596.0 74.9 595.5 75.5 594.9 76.1C594.4 76.7 593.5 77.7 593.1 78.2C592.0 79.8 589.9 82.5 589.0 83.5C588.6 84.0 587.7 85.3 587.0 86.3C586.4 87.3 585.5 88.4 585.1 88.8C584.8 89.1 584.2 89.9 583.9 90.5C583.5 91.1 582.9 91.9 582.5 92.3C582.1 92.7 581.8 93.2 581.8 93.4C581.8 93.5 581.5 93.9 581.2 94.1C580.9 94.4 580.2 95.4 579.6 96.3C579.0 97.2 578.2 98.1 577.9 98.3C577.6 98.5 576.9 99.4 576.4 100.2C575.8 101.0 574.9 102.2 574.4 102.9C572.4 105.4 571.9 106.1 571.6 106.5C571.5 106.7 571.0 107.3 570.5 107.9C570.0 108.5 569.3 109.5 568.8 110.0C568.4 110.6 567.6 111.6 567.1 112.2C566.6 112.8 566.0 113.7 565.8 114.2C565.5 114.7 565.1 115.3 564.8 115.4C564.5 115.6 564.1 116.1 563.8 116.6C563.6 117.0 563.2 117.7 562.9 118.0C562.6 118.3 561.9 119.1 561.3 119.8C560.8 120.4 559.7 121.8 558.9 123.0C557.4 125.1 556.2 126.8 555.0 128.0C554.6 128.3 554.2 128.9 554.0 129.3C553.7 130.1 553.0 131.0 551.0 133.4C550.4 134.1 549.3 135.3 548.7 136.2C545.3 140.4 544.3 141.7 543.8 142.5C543.4 143.0 542.8 143.8 542.4 144.3C542.0 144.8 541.3 145.7 540.9 146.3C540.5 146.8 539.8 147.7 539.4 148.1C538.9 148.6 538.3 149.4 537.9 150.0C537.5 150.6 537.0 151.3 536.8 151.6C536.5 151.9 536.0 152.5 535.7 152.9C532.5 157.2 529.3 161.4 527.2 163.8C526.8 164.4 526.1 165.2 525.9 165.6C525.5 166.3 523.6 168.6 522.8 169.5C522.6 169.6 522.2 170.3 521.8 170.9C521.4 171.5 520.8 172.0 520.6 172.1C520.4 172.2 520.1 172.6 519.9 173.1C519.7 173.5 519.3 174.1 519.1 174.3C518.9 174.4 518.5 175.0 518.2 175.6C517.7 176.7 516.5 178.1 515.0 179.7C514.5 180.2 513.5 181.4 512.8 182.4C510.6 185.3 509.7 186.5 508.9 187.3C508.6 187.7 508.0 188.4 507.7 188.8C507.4 189.3 507.0 189.7 506.8 189.8C506.6 189.9 506.3 190.5 506.0 191.0C505.7 191.5 505.3 192.1 505.1 192.3C504.8 192.5 504.3 193.1 503.9 193.8C503.6 194.4 502.5 195.6 501.6 196.6C500.7 197.5 500.0 198.4 500.0 198.5C500.0 198.6 499.5 199.3 498.9 200.0C492.7 207.1 491.8 208.9 491.8 213.6C491.7 215.7 492.6 218.4 493.8 220.2C494.6 221.5 497.9 224.0 498.6 224.0C498.8 224.0 499.5 224.4 500.3 224.9L501.6 225.7 L505.0 225.7L508.4 225.8 L510.4 224.8C511.5 224.2 512.5 223.8 512.7 223.8C513.2 223.7 515.7 221.7 515.9 221.2C516.0 220.9 516.6 220.0 517.3 219.2C518.0 218.5 519.4 216.8 520.4 215.5C521.3 214.2 522.5 212.8 522.9 212.3C523.3 211.8 524.0 210.9 524.4 210.3C525.4 208.7 528.1 205.0 528.8 204.3C529.4 203.6 531.1 201.4 532.2 199.9C532.9 198.9 533.2 198.4 535.2 196.1C537.4 193.7 537.6 193.4 538.2 192.2C538.5 191.6 539.0 190.9 539.3 190.6C539.5 190.3 539.9 189.7 540.1 189.2C540.3 188.8 540.7 188.2 541.0 188.0C541.4 187.9 541.8 187.4 542.1 187.0C542.3 186.7 542.7 186.1 543.0 185.7C543.7 185.0 545.2 183.0 545.9 181.9C546.1 181.4 546.8 180.5 547.4 179.9C547.9 179.3 548.7 178.4 549.1 177.9C550.6 176.2 545.0 176.3 616.5 176.3C666.5 176.4 681.8 176.5 682.3 176.7C682.7 176.9 683.2 177.5 683.7 178.4C684.1 179.2 684.7 180.0 685.0 180.2C685.3 180.4 685.7 180.9 685.9 181.3C686.1 181.8 686.7 182.6 687.2 183.2C688.2 184.5 688.7 185.1 689.7 186.7C690.1 187.2 690.6 187.9 690.9 188.0C691.3 188.2 691.8 188.9 692.1 189.6C692.5 190.2 693.3 191.6 693.9 192.5C694.6 193.5 695.4 194.7 695.7 195.2C696.0 195.7 696.9 196.9 697.8 197.9C699.2 199.6 699.7 200.4 701.2 203.0C701.5 203.5 702.0 204.2 702.4 204.5C702.7 204.8 703.3 205.7 703.7 206.3C704.0 207.0 704.5 207.7 704.9 207.9C705.2 208.1 705.7 208.7 705.9 209.2C706.1 209.7 706.7 210.7 707.2 211.4C707.7 212.1 708.4 213.0 708.7 213.4C709.0 213.8 709.4 214.5 709.6 214.9C709.9 215.3 710.3 215.8 710.5 216.1C710.7 216.4 711.3 217.3 711.7 218.1C712.8 220.2 715.7 223.3 717.2 224.0C717.8 224.3 718.8 224.8 719.3 225.0C721.2 226.0 727.1 226.2 728.4 225.4ZM767.6 224.6C770.2 223.3 771.8 222.1 772.2 221.1C772.4 220.7 772.9 220.1 773.3 219.9C773.9 219.5 774.2 219.1 774.3 218.4C774.5 217.8 774.8 216.9 775.1 216.2L775.6 215.1 L775.7 189.8C775.7 150.3 775.7 153.6 776.3 152.9L776.9 152.4 L840.9 152.4C876.1 152.4 905.1 152.5 905.2 152.6C906.0 153.1 906.0 154.6 906.0 184.3L906.0 214.5 L906.6 216.4C908.0 220.5 909.9 222.7 913.9 224.7L915.9 225.8 L919.5 225.8C922.8 225.8 923.2 225.7 923.8 225.3C924.2 225.0 924.6 224.8 924.8 224.8C925.0 224.8 925.5 224.5 925.8 224.2C926.2 224.0 926.6 223.8 926.7 223.8C927.1 223.8 930.4 220.5 931.1 219.4C931.4 218.8 931.9 217.5 932.2 216.4L932.8 214.5 L932.8 142.9C932.8 72.0 932.8 69.9 932.0 67.7C931.4 66.3 927.4 61.8 926.7 61.8C926.6 61.8 925.8 61.4 925.0 60.9C923.4 59.9 920.6 59.6 917.0 60.0C913.6 60.4 909.2 63.5 907.6 66.7C907.3 67.4 906.9 68.0 906.8 68.0C906.2 68.0 906.1 70.9 906.0 98.5C905.9 126.4 905.8 128.2 905.4 128.8L905.0 129.5 L840.9 129.4C789.3 129.4 776.8 129.3 776.4 129.1C775.7 128.4 775.6 125.7 775.6 97.9L775.6 69.9 L774.6 67.8C773.2 64.9 771.3 62.9 769.4 62.0C768.6 61.5 767.4 60.9 766.8 60.6C765.7 60.0 765.5 60.0 762.1 60.1C758.4 60.2 757.1 60.5 755.8 61.5C753.3 63.4 752.3 64.4 751.6 65.5C751.2 66.1 750.7 67.0 750.4 67.3C750.1 67.8 749.9 68.7 749.7 70.3C749.6 71.6 749.5 103.7 749.5 143.6C749.5 222.8 749.4 217.1 751.2 219.3C751.6 219.8 752.0 220.4 752.0 220.5C752.0 220.8 755.0 223.6 755.9 224.1C758.1 225.2 760.1 225.7 763.1 225.7C765.4 225.7 765.4 225.7 767.6 224.6ZM978.1 196.6C979.6 196.0 980.1 195.5 980.9 194.5C981.4 193.8 982.2 193.0 982.6 192.7C983.5 192.0 986.0 189.4 986.0 189.0C986.0 188.9 986.5 188.5 987.2 188.1C988.4 187.3 988.9 187.0 990.6 185.4C992.0 184.2 992.4 182.9 992.2 180.5C992.0 178.5 991.8 178.1 990.6 176.6C990.1 176.0 989.8 175.5 989.8 175.3C989.8 175.2 989.5 174.7 989.2 174.3C988.8 173.9 988.4 173.2 988.1 172.8C987.9 172.3 987.4 171.6 987.1 171.2C986.8 170.9 986.3 169.9 986.0 169.1C985.7 168.2 985.3 167.4 985.2 167.4C985.0 167.2 984.0 165.1 984.0 164.7C984.0 164.6 983.7 163.8 983.2 162.9C982.8 162.0 982.3 160.3 982.0 159.1C981.8 157.8 981.3 156.4 981.0 155.9C979.2 153.0 979.1 132.3 980.8 127.6C981.0 127.1 981.6 125.3 982.0 123.6C982.4 122.0 983.1 120.2 983.4 119.5C983.7 118.9 984.0 118.2 984.0 118.0C984.0 117.3 984.8 115.4 985.3 114.9C985.5 114.6 985.8 114.2 985.8 114.1C985.8 113.7 986.8 111.4 987.1 111.0C987.3 110.8 987.7 110.1 987.9 109.5C988.1 108.9 988.6 108.0 989.0 107.4C989.4 106.9 990.0 106.0 990.2 105.4C990.5 104.9 990.9 104.2 991.1 104.0C991.3 103.8 991.8 103.1 992.2 102.4C992.5 101.8 993.1 100.8 993.6 100.3C994.8 98.9 995.8 97.6 995.8 97.2C995.8 97.1 996.7 96.0 997.8 94.8C1000.6 91.9 1000.8 91.7 1003.6 89.0C1004.9 87.7 1006.0 86.6 1006.0 86.5C1006.0 86.4 1006.2 86.2 1006.5 86.1C1006.8 86.0 1007.3 85.6 1007.7 85.2C1008.1 84.8 1008.8 84.2 1009.4 83.9C1009.9 83.7 1010.8 83.1 1011.3 82.7C1013.0 81.3 1013.8 80.8 1015.0 80.1C1015.7 79.8 1016.3 79.4 1016.4 79.2C1016.5 79.1 1017.2 78.7 1018.0 78.2C1018.8 77.8 1019.6 77.3 1019.8 77.0C1020.2 76.4 1021.7 75.8 1022.5 75.8C1022.8 75.8 1023.3 75.6 1023.5 75.4C1023.7 75.2 1024.8 74.7 1025.9 74.2C1027.0 73.8 1028.0 73.3 1028.2 73.2C1028.5 72.9 1031.9 71.7 1032.4 71.7C1032.6 71.7 1033.2 71.5 1033.6 71.3C1034.4 70.8 1038.1 69.8 1039.0 69.8C1039.3 69.8 1039.9 69.5 1040.4 69.3C1043.7 67.7 1062.9 67.1 1068.8 68.5C1069.4 68.6 1070.3 68.7 1070.8 68.7C1071.2 68.7 1071.9 68.9 1072.2 69.2C1072.5 69.4 1073.3 69.6 1074.0 69.7C1075.8 69.8 1079.3 70.7 1080.1 71.3C1080.4 71.5 1080.9 71.8 1081.2 71.8C1081.8 71.8 1084.8 72.8 1085.2 73.1C1085.5 73.3 1086.5 73.8 1087.6 74.1C1088.7 74.5 1089.8 75.0 1090.0 75.1C1090.2 75.3 1091.0 75.7 1091.7 76.1C1092.4 76.4 1093.2 76.9 1093.4 77.1C1093.7 77.3 1094.5 77.7 1095.2 78.0C1096.0 78.3 1097.0 78.9 1097.5 79.2C1098.6 79.9 1099.3 79.9 1101.5 79.0C1103.0 78.5 1103.5 78.1 1103.9 77.5C1104.6 76.3 1107.3 73.1 1110.6 69.8C1113.8 66.5 1114.2 65.7 1114.4 63.2C1114.6 60.7 1114.2 59.6 1112.0 57.7C1111.0 56.9 1109.8 56.0 1109.3 55.8C1108.8 55.5 1108.2 55.1 1108.0 54.9C1107.8 54.7 1107.1 54.1 1106.3 53.7C1105.5 53.3 1104.7 52.8 1104.5 52.6C1104.3 52.5 1103.5 52.1 1102.6 51.7C1101.8 51.4 1100.9 51.0 1100.6 50.7C1100.3 50.5 1099.5 50.1 1098.6 49.7C1097.8 49.4 1096.9 49.0 1096.6 48.8C1096.3 48.5 1095.3 48.1 1094.3 47.8C1093.3 47.5 1092.2 47.0 1091.9 46.8C1091.6 46.5 1090.8 46.2 1090.0 46.0C1089.2 45.8 1088.1 45.4 1087.5 45.1C1086.2 44.5 1084.1 43.9 1082.1 43.6C1081.4 43.5 1080.6 43.3 1080.2 43.1C1079.3 42.7 1076.8 42.1 1072.9 41.5C1071.1 41.2 1069.2 40.8 1068.6 40.6C1067.1 39.9 1044.0 39.9 1041.4 40.6C1040.4 40.8 1038.0 41.3 1036.0 41.6C1034.1 42.0 1031.1 42.6 1029.5 43.1C1027.9 43.6 1026.1 44.0 1025.4 44.1C1024.7 44.2 1023.8 44.5 1023.4 44.7C1023.0 45.0 1022.2 45.3 1021.7 45.4C1021.2 45.4 1020.5 45.7 1020.1 45.9C1019.7 46.1 1019.2 46.2 1018.9 46.2C1018.7 46.2 1018.2 46.5 1017.8 46.7C1017.4 47.0 1016.7 47.3 1016.2 47.5C1015.7 47.7 1015.2 47.9 1015.1 48.0C1015.0 48.1 1014.7 48.2 1014.4 48.2C1014.0 48.2 1013.4 48.5 1012.9 48.9C1012.4 49.2 1011.4 49.7 1010.8 49.9C1010.2 50.2 1009.3 50.6 1008.8 50.9C1008.3 51.2 1007.6 51.6 1007.1 51.8C1006.2 52.1 1004.6 53.0 1002.0 54.6C1001.4 55.1 1000.4 55.7 999.7 56.1C998.0 57.0 996.0 58.5 995.7 59.0C995.6 59.3 994.9 59.8 994.2 60.1C992.8 60.7 989.9 63.0 987.6 65.2C986.9 65.8 985.9 66.8 985.4 67.3C984.8 67.7 984.1 68.4 983.9 68.8C983.6 69.2 983.3 69.5 983.1 69.5C982.7 69.5 980.4 71.8 979.0 73.6C978.4 74.4 977.5 75.4 977.0 75.7C976.6 76.0 976.0 76.7 975.8 77.1C975.4 77.9 974.6 79.0 973.1 80.7C972.6 81.3 972.1 82.1 971.9 82.6C971.7 83.1 971.3 83.6 971.1 83.8C970.6 84.1 970.3 84.6 968.6 87.5C968.2 88.2 967.6 89.2 967.3 89.6C967.0 90.0 966.4 91.1 966.0 92.0C965.5 92.9 964.9 93.9 964.6 94.3C964.3 94.7 964.0 95.2 964.0 95.4C964.0 95.7 962.9 97.9 962.5 98.4C962.3 98.6 962.0 99.3 961.8 100.0C961.5 100.8 961.0 101.9 960.7 102.6C960.3 103.3 959.8 104.5 959.6 105.4C959.4 106.2 959.0 107.2 958.8 107.6C958.5 108.0 958.1 109.0 957.9 109.9C957.6 110.7 957.2 111.7 957.0 112.1C956.8 112.5 956.3 114.1 956.0 115.5C955.7 116.9 955.2 118.8 955.0 119.6C954.4 121.5 954.1 123.5 953.7 127.7C953.6 129.5 953.4 131.4 953.2 131.8C953.1 132.3 953.0 135.9 953.0 139.9C953.0 149.0 953.8 157.2 955.1 161.5C955.3 162.1 955.6 163.6 955.9 164.9C956.1 166.1 956.5 167.5 956.8 167.9C957.0 168.3 957.5 169.4 957.8 170.4C958.1 171.3 958.6 172.6 958.9 173.2C959.2 173.9 959.7 175.0 959.9 175.8C960.2 176.5 960.4 177.3 960.6 177.4C961.0 178.0 962.2 180.8 962.2 181.1C962.2 181.3 962.4 181.6 962.7 181.8C962.9 182.0 963.4 182.9 963.8 183.8C964.2 184.6 964.9 185.9 965.4 186.6C965.9 187.2 966.2 187.8 966.2 188.0C966.2 188.1 966.5 188.4 966.8 188.6C967.1 188.9 967.6 189.7 967.9 190.4C968.2 191.1 968.6 191.8 968.7 191.9C968.9 191.9 969.4 192.7 969.8 193.6C970.8 195.2 971.9 196.2 973.6 197.0C975.1 197.7 976.1 197.6 978.1 196.6ZM568.5 154.1C568.2 154.0 567.8 153.9 567.7 153.8C567.3 153.4 569.5 149.9 571.2 148.1C571.6 147.7 572.1 147.1 572.3 146.8C572.4 146.4 573.3 145.3 574.1 144.3C575.5 142.7 576.5 141.2 577.9 139.2C578.2 138.9 578.7 138.2 579.2 137.7C579.6 137.2 580.2 136.4 580.3 136.0C580.5 135.7 581.4 134.6 582.4 133.6C583.3 132.6 584.2 131.6 584.4 131.3C584.8 130.6 586.0 129.0 587.1 127.8C587.6 127.2 588.2 126.4 588.4 125.9C588.6 125.5 589.1 124.7 589.5 124.2C590.9 122.7 591.7 121.6 592.0 120.9C592.2 120.6 592.6 120.2 592.9 120.0C593.2 119.8 593.6 119.3 593.8 118.8C594.1 118.4 594.7 117.4 595.3 116.8C595.9 116.2 596.5 115.4 596.6 115.2C597.7 113.4 598.8 112.0 599.1 111.8C599.3 111.8 599.9 111.1 600.4 110.3C600.9 109.4 601.7 108.4 602.2 108.0C602.8 107.6 603.4 106.7 603.7 106.1C604.3 105.0 605.1 103.9 607.0 102.0C607.4 101.6 608.1 100.7 608.5 100.0C608.9 99.3 609.9 98.0 610.6 97.1C611.3 96.3 612.1 95.3 612.3 94.9C612.5 94.4 613.4 93.3 614.2 92.4C615.0 91.5 615.9 90.4 616.2 89.8C616.5 89.3 617.2 88.5 617.8 88.0C618.9 87.1 619.3 87.2 620.1 88.8C620.5 89.5 621.5 90.8 622.7 91.9C623.1 92.3 623.6 93.1 623.8 93.5C624.0 94.0 624.4 94.6 624.6 94.8C625.7 95.9 627.6 98.4 628.0 99.3C628.5 100.3 629.3 101.5 630.9 103.5C631.3 103.9 631.8 104.6 632.0 105.0C632.4 105.8 633.8 107.6 634.5 108.4C634.7 108.7 635.2 109.4 635.5 109.9C635.8 110.5 636.5 111.5 637.1 112.2C637.6 112.9 638.5 114.0 639.0 114.7C639.5 115.4 640.2 116.4 640.5 116.8C640.9 117.3 641.4 118.1 641.8 118.6C642.1 119.2 642.8 120.2 643.4 120.8C644.0 121.5 645.0 122.9 645.6 124.0C646.2 125.1 646.9 126.0 647.1 126.1C647.3 126.2 647.7 126.7 648.0 127.2C648.2 127.7 648.7 128.3 649.0 128.6C649.3 128.9 649.7 129.6 650.0 130.1C650.3 130.7 650.9 131.6 651.4 132.0C651.9 132.4 652.2 132.9 652.2 133.0C652.2 133.3 653.8 135.6 654.6 136.5C655.0 136.8 655.4 137.5 655.6 138.1C655.8 138.6 656.2 139.3 656.5 139.6C657.7 140.8 659.2 142.7 660.8 145.2C661.8 146.6 662.7 147.8 662.9 147.8C663.1 147.9 663.5 148.5 663.8 149.0C664.1 149.6 664.6 150.3 664.9 150.6C666.4 151.8 666.9 153.6 665.9 154.0C665.2 154.2 569.8 154.3 568.5 154.1Z"/>
<path fill="#D6336C" fill-rule="evenodd" stroke="#D6336C" stroke-width="4" stroke-linejoin="round" d="M1127.4 196.9C1129.1 195.9 1131.3 193.5 1133.9 189.7C1134.3 189.1 1135.1 188.0 1135.6 187.3C1137.4 185.0 1139.3 182.3 1140.2 180.5C1140.6 179.7 1141.1 179.0 1141.3 178.9C1141.4 178.8 1141.9 177.9 1142.4 176.9C1142.9 175.9 1143.8 174.1 1144.5 172.8C1147.7 166.5 1151.2 155.9 1152.0 150.0C1152.1 149.2 1152.3 147.7 1152.5 146.6C1153.0 143.5 1153.0 129.7 1152.4 125.9C1152.2 124.2 1151.9 122.4 1151.9 121.8C1151.8 121.1 1151.5 119.8 1151.3 118.8C1151.0 117.7 1150.5 115.7 1150.1 114.2C1149.5 111.6 1147.7 106.0 1147.3 105.4C1147.2 105.3 1146.8 104.5 1146.5 103.6C1145.6 101.2 1141.9 93.6 1141.0 92.3C1140.8 91.9 1140.1 91.0 1139.6 90.1C1139.1 89.3 1138.4 88.3 1138.2 87.9C1137.9 87.5 1137.1 86.3 1136.4 85.4C1134.1 81.9 1133.6 81.3 1132.4 79.9C1130.8 78.0 1129.7 77.5 1127.5 77.5C1125.2 77.5 1124.4 78.0 1122.1 80.4C1119.8 83.0 1117.4 85.4 1115.6 87.0C1113.0 89.3 1112.3 90.3 1112.1 91.8C1111.9 93.7 1112.3 95.0 1113.5 96.6C1115.5 99.2 1118.0 102.9 1118.0 103.2C1118.0 103.3 1118.2 103.6 1118.5 103.9C1118.7 104.2 1119.3 105.1 1119.7 106.0C1120.2 106.9 1120.7 108.0 1120.9 108.4C1121.8 110.1 1122.0 110.5 1122.0 110.8C1122.0 111.0 1122.2 111.5 1122.4 111.8C1122.7 112.1 1123.2 113.2 1123.5 114.2C1123.8 115.3 1124.3 116.7 1124.5 117.4C1125.1 118.9 1125.5 120.8 1126.5 125.6C1127.8 132.1 1127.8 140.1 1126.5 146.8C1126.4 147.4 1126.1 148.8 1125.9 149.9C1125.3 152.7 1124.9 154.6 1124.5 155.2C1124.4 155.5 1124.0 156.6 1123.6 157.6C1123.3 158.7 1122.7 160.2 1122.4 160.9C1122.1 161.6 1121.6 162.6 1121.3 163.2C1120.6 164.7 1119.1 167.5 1118.7 168.0C1118.5 168.2 1118.0 169.0 1117.5 169.8C1117.1 170.6 1116.6 171.2 1116.5 171.3C1116.4 171.3 1116.1 171.8 1115.7 172.4C1115.4 172.9 1114.5 174.2 1113.6 175.2C1112.8 176.2 1111.5 177.8 1110.8 178.8L1109.5 180.6 L1109.5 182.5C1109.5 184.6 1109.8 185.3 1111.1 186.3C1112.9 187.7 1116.5 191.2 1117.6 192.7C1119.2 194.8 1121.6 197.1 1123.0 197.6C1124.1 198.0 1125.8 197.7 1127.4 196.9Z"/>
<path fill="#D6336C" fill-rule="evenodd" d="M1144.9 261.0C1150.2 259.9 1150.4 251.2 1145.0 250.0C1143.7 249.7 492.6 249.7 491.5 250.0C490.1 250.4 488.4 252.2 488.0 253.7C487.2 256.3 487.8 258.3 489.6 259.9L490.8 260.9 L495.0 261.0C504.6 261.3 1143.4 261.2 1144.9 261.0Z"/>
</svg>
